<svg xmlns="http://www.w3.org/2000/svg" width="20" height="20" viewBox="0 0 20 20">
  <path fill="#000000" fill-rule="evenodd" d="M473,54 C471.897,54 471,53.103 471,52 C471,50.897 471.897,50 473,50 C474.103,50 475,50.897 475,52 C475,53.103 474.103,54 473,54 M463,52 C463,53.103 462.103,54 461,54 C459.897,54 459,53.103 459,52 C459,50.897 459.897,50 461,50 C462.103,50 463,50.897 463,52 M474,48.141 L474,36 L468,36 L468,38 L472,38 L472,42.992 L462,45.469 L462,44 L464,44 L464,42 L458,42 L458,44 L460,44 L460,48.141 C458.278,48.587 457,50.138 457,52 C457,54.209 458.791,56 461,56 C463.209,56 465,54.209 465,52 C465,50.138 463.722,48.587 462,48.141 L462,47.529 L472,45.052 L472,48.141 C470.278,48.587 469,50.138 469,52 C469,54.209 470.791,56 473,56 C475.209,56 477,54.209 477,52 C477,50.138 475.722,48.587 474,48.141" transform="translate(-457 -36)"/>
</svg>
