<svg xmlns="http://www.w3.org/2000/svg" width="21" height="20" viewBox="0 0 21 20">
  <path fill="#000000" fill-rule="evenodd" d="M246.19994,46 L246.19994,39.104 C246.19994,38.552 246.64794,38 247.19994,38 L261.19994,38 C261.75194,38 262.19994,38.552 262.19994,39.104 L262.19994,46 L246.19994,46 Z M248.19994,52.104 L248.19994,52.104 C247.64794,52.104 247.19994,51.656 247.19994,51.104 C247.19994,50.552 247.64794,50.104 248.19994,50.104 C248.75194,50.104 249.19994,50.552 249.19994,51.104 C249.19994,51.656 248.75194,52.104 248.19994,52.104 L248.19994,52.104 Z M260.19994,52.104 L260.19994,52.104 C259.64794,52.104 259.19994,51.656 259.19994,51.104 C259.19994,50.552 259.64794,50.104 260.19994,50.104 C260.75194,50.104 261.19994,50.552 261.19994,51.104 C261.19994,51.656 260.75194,52.104 260.19994,52.104 L260.19994,52.104 Z M246.19994,36 C245.09494,36 244.19994,37 244.19994,38.104 L244.19994,46.104 L244.19994,52.104 C244.19994,53.209 245.09494,54.104 246.19994,54.104 L246.19994,55.104 C246.19994,55.656 246.64794,56 247.19994,56 L249.19994,56 C249.75194,56 250.19994,55.656 250.19994,55.104 L250.19994,54 L258.19994,54 L258.19994,55.104 C258.19994,55.656 258.64794,56 259.19994,56 L261.19994,56 C261.75194,56 262.19994,55.656 262.19994,55.104 L262.19994,54.104 C263.30494,54.104 264.19994,53.209 264.19994,52.104 L264.19994,46.104 L264.19994,38.104 C264.19994,37 263.30494,36 262.19994,36 L246.19994,36 Z" transform="translate(-244 -36)"/>
</svg>
