<svg xmlns="http://www.w3.org/2000/svg" width="21" height="20" viewBox="0 0 21 20">
  <path fill="#000000" fill-rule="evenodd" d="M178.59997,48 L178.59997,39 C178.59997,38.448 179.04797,38 179.59997,38 L189.59997,38 C190.15197,38 190.59997,38.448 190.59997,39 L190.59997,48 L178.59997,48 Z M188.59997,51 L188.59997,51 C188.59997,50.448 189.04797,50 189.59997,50 C190.15197,50 190.59997,50.448 190.59997,51 C190.59997,51.552 190.15197,52 189.59997,52 C189.04797,52 188.59997,51.552 188.59997,51 L188.59997,51 Z M178.59997,51 L178.59997,51 C178.59997,50.448 179.04797,50 179.59997,50 C180.15197,50 180.59997,50.448 180.59997,51 C180.59997,51.552 180.15197,52 179.59997,52 C179.04797,52 178.59997,51.552 178.59997,51 L178.59997,51 Z M194.59997,45 L194.59997,45 C194.59997,44.448 194.15197,44 193.59997,44 L192.59997,44 L192.59997,38 C192.59997,36.895 191.70497,36 190.59997,36 L178.59997,36 C177.49497,36 176.59997,36.895 176.59997,38 L176.59997,44 L175.59997,44 C175.04797,44 174.59997,44.448 174.59997,45 C174.59997,45.552 175.04797,46 175.59997,46 L176.59997,46 L176.59997,48 C175.49497,48 174.59997,48.895 174.59997,50 L174.59997,52 C174.59997,53.105 175.49497,54 176.59997,54 L176.59997,55 C176.59997,55.552 177.04797,56 177.59997,56 L179.59997,56 C180.15197,56 180.59997,55.552 180.59997,55 L180.59997,54 L188.59997,54 L188.59997,55 C188.59997,55.552 189.04797,56 189.59997,56 L191.59997,56 C192.15197,56 192.59997,55.552 192.59997,55 L192.59997,54 C193.70497,54 194.59997,53.105 194.59997,52 L194.59997,50 C194.59997,48.895 193.70497,48 192.59997,48 L192.59997,46 L193.59997,46 C194.15197,46 194.59997,45.552 194.59997,45 L194.59997,45 Z" transform="translate(-174 -36)"/>
</svg>
