<svg xmlns="http://www.w3.org/2000/svg" width="20" height="20" viewBox="0 0 20 20">
  <path fill="#000000" fill-rule="evenodd" d="M110,52 L110,52 C109.448,52 109,51.552 109,51 C109,50.448 109.448,50 110,50 C110.552,50 111,50.448 111,51 C111,51.552 110.552,52 110,52 M120,50 L120,50 C120.552,50 121,50.448 121,51 C121,51.552 120.552,52 120,52 C119.448,52 119,51.552 119,51 C119,50.448 119.448,50 120,50 M111.602,38 L118.398,38 C118.896,38 119.318,38.366 119.388,38.859 L120.694,48 L109.306,48 L110.612,38.859 C110.682,38.366 111.104,38 111.602,38 M125,45 L125,45 C125,44.448 124.552,44 124,44 L122.143,44 L121.245,37.717 C121.105,36.732 120.261,36 119.265,36 L110.735,36 C109.739,36 108.895,36.732 108.755,37.717 L107.857,44 L106,44 C105.448,44 105,44.448 105,45 C105,45.552 105.448,46 106,46 L107.571,46 L107.286,48 L107,48 C105.895,48 105,48.895 105,50 L105,52 C105,53.105 105.895,54 107,54 L107,55 C107,55.552 107.448,56 108,56 L110,56 C110.552,56 111,55.552 111,55 L111,54 L119,54 L119,55 C119,55.552 119.448,56 120,56 L122,56 C122.552,56 123,55.552 123,55 L123,54 C124.105,54 125,53.105 125,52 L125,50 C125,48.895 124.105,48 123,48 L122.714,48 L122.429,46 L124,46 C124.552,46 125,45.552 125,45" transform="translate(-105 -36)"/>
</svg>
