<svg xmlns="http://www.w3.org/2000/svg" width="20" height="20" viewBox="0 0 20 20">
  <path fill="#000000" fill-rule="evenodd" d="M24.899,18 C25.031,17.349 25.036,16.673 24.899,16 L27.93,16 C28.022,16.733 28.023,17.261 27.93,18 L24.899,18 Z M23,24.411 L23,20.977 C23.479,20.792 23.768,20.392 23.977,20 L27.411,20 C26.598,22 25,23.598 23,24.411 L23,24.411 Z M20,20 C16.035,20 16.035,14 20,14 C23.964,14 23.964,20 20,20 L20,20 Z M19,25 L21,25 L21,22 L19,22 L19,25 Z M17,24.411 C15,23.598 13.402,22 12.589,20 L16.022,20 C16.302,20.37 17,20.698 17,20.977 L17,24.411 Z M12.069,16 L15.101,16 C14.968,16.651 14.964,17.327 15.101,18 L12.069,18 C11.977,17.267 11.976,16.739 12.069,16 L12.069,16 Z M20,9 C23.35,9 26.221,11.072 27.411,14 L23.977,14 C23.064,12.792 21.63,12 20,12 C18.369,12 16.935,12.792 16.022,14 L12.589,14 C13.778,11.072 16.65,9 20,9 L20,9 Z M20,7 C14.477,7 10,11.477 10,17 C10,22.523 14.477,27 20,27 C25.523,27 30,22.523 30,17 C30,11.477 25.523,7 20,7 L20,7 Z" transform="translate(-10 -7)"/>
</svg>
